Coordinates
version=1
nRows=19
nColumns=34
inDegrees=yes

Units are S.I. units (second, meters, Newtons, ...)
If the header above contains a line with 'inDegrees', this indicates whether rotational values are in degrees (yes) or radians (no).

endheader
time	pelvis_tilt	pelvis_list	pelvis_rotation	pelvis_tx	pelvis_ty	pelvis_tz	hip_flexion_r	hip_adduction_r	hip_rotation_r	knee_angle_r	ankle_angle_r	subtalar_angle_r	mtp_angle_r	hip_flexion_l	hip_adduction_l	hip_rotation_l	knee_angle_l	ankle_angle_l	subtalar_angle_l	mtp_angle_l	lumbar_extension	lumbar_bending	lumbar_rotation	arm_flex_r	arm_add_r	arm_rot_r	elbow_flex_r	pro_sup_r	arm_flex_l	arm_add_l	arm_rot_l	elbow_flex_l	pro_sup_l
      5.23333330	     -3.96041556	      0.68896720	     -7.20430891	      2.31136718	      0.86090246	     -0.05380313	     -7.68941222	     -2.55821709	      4.43209147	     18.35563632	     11.04991174	     -0.53467468	      0.00000000	     22.50720961	      0.30365095	     -0.77144491	     19.33192834	     -0.58296713	     -6.55127734	      0.00000000	     -8.70996239	     -1.91771303	      5.67927539	     22.84725119	     -9.96955088	     10.51454560	     53.31954513	     76.54555257	     19.63393102	     -7.04198056	      8.79318995	     46.80394477	     77.07193447
      5.25000000	     -3.76990896	      0.70333306	     -7.15177199	      2.32382340	      0.86698743	     -0.05475790	     -5.89582559	     -2.98220573	      3.52892173	     22.58152556	      9.01265098	     -0.58019006	      0.00000000	     20.74034543	      0.75549729	     -0.44960356	     18.37666714	     -0.02079513	     -6.60654933	      0.00000000	     -8.88788812	     -1.85072837	      5.22089020	     24.12531742	     -9.12878041	     10.52559775	     54.32293233	     76.62035292	     20.91189669	     -6.11302773	      9.17413040	     47.21699388	     77.17553493
      5.26666670	     -2.96210377	      0.54899002	     -7.15280248	      2.33490667	      0.87071906	     -0.05359516	     -3.99919267	     -3.27100500	      2.34460681	     28.13061363	      6.87463377	     -0.74115820	      0.00000000	     18.02815669	      0.97374948	      0.03295183	     16.89858986	      0.27982717	     -6.55124701	      0.00000000	    -10.04976636	     -1.83499852	      5.25880629	     24.44709481	     -8.72451679	     10.32884517	     57.83846751	     77.13083878	     22.28294598	     -5.56515280	     10.81029551	     48.94564273	     77.92367261
      5.28333330	     -2.59828565	      0.29714359	     -7.02654830	      2.34522748	      0.86796370	     -0.05211829	     -0.77052918	     -3.49659306	      0.55121822	     35.12630943	      5.49585068	      0.15210352	      0.00000000	     16.07158118	      0.86973236	      0.39514236	     15.71889876	      1.12324556	     -5.97655058	      0.00000000	    -10.39014973	     -1.71430342	      5.37065594	     24.74168293	     -8.07629780	      9.89823533	     60.18135805	     77.53883507	     23.57079783	     -4.98404079	     12.13985515	     50.41821099	     78.65947480
      5.30000000	     -2.29675335	      0.13422545	     -6.79690692	      2.35427925	      0.86501360	     -0.05160070	      2.69707398	     -3.80498839	     -1.12279355	     41.83986077	      5.27736944	      1.43830107	      0.00000000	     14.43681057	      0.75436961	      0.57289090	     14.75822158	      2.08660185	     -5.41689230	      0.00000000	    -10.55717118	     -1.57330924	      5.38561326	     24.97990615	     -7.54337281	      9.64178877	     62.90764678	     77.93652181	     24.85819955	     -4.55372513	     13.62533892	     52.35210017	     79.45703513
      5.31666670	     -2.17491569	      0.08307037	     -6.54282864	      2.36166739	      0.86598594	     -0.05172948	      6.18874093	     -4.04778695	     -2.41343802	     46.96321617	      6.93208643	      2.71069230	      0.00000000	     13.22698639	      0.66861019	      0.60223225	     13.98186172	      2.89776231	     -4.82213261	      0.00000000	    -10.41278369	     -1.44770430	      5.18121821	     25.29796925	     -6.80874656	      9.72562098	     65.34250385	     78.20779966	     25.98186976	     -4.23567025	     14.89143489	     54.04836379	     80.03636093
      5.33333330	     -2.17467203	     -0.12165055	     -6.03856870	      2.36814833	      0.86925837	     -0.05203564	      9.33079488	     -3.91494226	     -3.66888445	     49.32802029	      9.50392806	      3.54442004	      0.00000000	     12.58112302	      0.34747024	      0.57033792	     13.85888358	      3.38805953	     -4.10157148	      0.00000000	    -10.51794304	     -1.19969269	      5.24638757	     25.16009389	     -6.41755030	      9.38185539	     68.66942772	     78.71312170	     27.32587204	     -4.06116325	     17.14011814	     56.56745407	     81.22373018
      5.35000000	     -2.35309018	     -0.28286272	     -5.28042184	      2.37580765	      0.87177714	     -0.05238524	     12.27966199	     -3.75658624	     -4.78329915	     49.40346407	     12.56692096	      4.55580871	      0.00000000	     12.29000271	      0.08927782	      0.63184201	     13.92495426	      3.62064787	     -3.41162783	      0.00000000	    -10.24705477	     -0.80141928	      4.49966506	     25.47169564	     -5.63615037	      9.62784381	     70.68188998	     78.92776383	     28.39996005	     -3.76462307	     18.18275686	     57.82561483	     81.69138964
      5.36666670	     -2.64251819	     -0.50462626	     -4.35816274	      2.38472015	      0.87321868	     -0.05261972	     14.90345926	     -3.42281099	     -5.71447146	     47.01932993	     14.36583626	      5.30757250	      0.00000000	     12.28028812	     -0.21438295	      0.69135558	     14.24227452	      3.54745900	     -2.60912187	      0.00000000	    -10.03465819	     -0.40669204	      3.95582234	     25.34874218	     -5.36403007	      9.64864210	     73.25822554	     79.21304157	     29.25396682	     -3.64792722	     19.89289081	     60.27495756	     82.42539919
      5.38333330	     -2.87118317	     -0.73891339	     -3.27309043	      2.39418810	      0.87364762	     -0.05290032	     16.98593906	     -3.08374030	     -6.52213008	     43.00642429	     14.75269544	      5.97060617	      0.00000000	     12.21404192	     -0.43378940	      0.93392376	     14.52914475	      3.44324849	     -1.83175719	      0.00000000	     -9.69371664	      0.03420688	      3.22799290	     25.01539118	     -4.98286889	      9.55416621	     75.51510648	     79.44861778	     29.85512836	     -3.48698939	     21.28530397	     62.27623187	     83.07297284
      5.40000000	     -3.07018117	     -0.85348407	     -2.08101169	      2.40320435	      0.87397980	     -0.05286532	     18.49934247	     -2.87917898	     -7.24512156	     37.77471460	     14.23247119	      6.42233092	      0.00000000	     12.17909948	     -0.43795535	      1.26900687	     14.86986292	      3.40246048	     -1.23867373	      0.00000000	     -9.22401909	      0.28184435	      2.39227928	     24.63964129	     -4.55494705	      9.51700689	     77.14155058	     79.55638132	     30.27817343	     -3.26493664	     22.20497318	     63.74194780	     83.40811544
      5.41666670	     -3.14795909	     -0.72233339	     -0.90915341	      2.41192519	      0.87464597	     -0.05179125	     19.45869252	     -2.91985720	     -7.59555119	     32.06292198	     13.75192403	      6.56014285	      0.00000000	     11.98754826	     -0.19574636	      1.42120834	     15.15746521	      3.31074413	     -0.74945521	      0.00000000	     -8.84131094	      0.12035998	      1.71748588	     23.88122711	     -4.23413142	      9.33139673	     79.01935610	     79.63660744	     30.42239533	     -3.26148230	     23.16388340	     65.73651613	     83.71450203
      5.43333330	     -3.05457540	     -0.35823765	      0.20676591	      2.42085141	      0.87519040	     -0.04996049	     19.90126860	     -3.22470993	     -7.45115545	     26.28062801	     13.18516007	      6.48640961	      0.00000000	     11.52094102	      0.21449515	      1.60576921	     15.36032309	      3.41785930	     -0.40658826	      0.00000000	     -8.55549384	     -0.42401580	      1.17266319	     22.86252029	     -3.90036188	      8.98397403	     80.95461567	     79.68056769	     30.33108617	     -3.33517832	     23.95287225	     67.82003383	     83.94204469
      5.45000000	     -2.83340439	      0.03797839	      1.30002673	      2.42937608	      0.87545987	     -0.04819360	     19.95741519	     -3.65105895	     -6.98721366	     20.86581119	     12.27037460	      6.51336609	      0.00000000	     11.08077861	      0.56660304	      2.09952754	     15.80854974	      3.58987861	      0.00148222	      0.00000000	     -8.27967994	     -1.01364790	      0.69051414	     21.97539888	     -3.56573047	      8.74725790	     82.31291859	     79.67474608	     30.09530952	     -3.33064231	     24.48511537	     69.32661269	     84.01285154
      5.46666670	     -2.50753287	      0.52145696	      2.25673518	      2.43802283	      0.87479661	     -0.04666266	     19.79177081	     -4.23763881	     -6.03202767	     16.41873037	     10.98463662	      6.44048874	      0.00000000	     10.47269817	      0.89895862	      2.71165795	     16.09897640	      4.07769638	      0.43876642	      0.00000000	     -8.17638653	     -1.70505389	      0.34363508	     21.01130086	     -3.31285300	      8.37722827	     83.82664814	     79.61390926	     29.65744016	     -3.49612472	     25.02182845	     71.23988161	     83.98750799
      5.48333330	     -2.12464541	      0.99035527	      3.16672824	      2.44658347	      0.87355012	     -0.04523842	     19.45462861	     -4.88249836	     -4.93840373	     13.17853057	      9.36717294	      6.49913440	      0.00000000	      9.88101188	      1.11722039	      3.38799944	     16.43218198	      4.65662654	      1.01145753	      0.00000000	     -8.03450540	     -2.34007205	      0.10195610	     20.23760901	     -3.24740666	      8.04958293	     85.10506334	     79.50960300	     28.99610176	     -3.63684560	     25.48724423	     73.02357663	     83.85349581
      5.50000000	     -1.69985954	      1.47230788	      4.09864953	      2.45464347	      0.87261677	     -0.04348372	     18.97411190	     -5.56590608	     -3.81491959	     11.26425212	      7.45158102	      6.66613958	      0.00000000	      9.36376713	      1.24258642	      3.92520741	     16.99116021	      5.33435170	      1.80010103	      0.00000000	     -7.91974228	     -2.90891166	     -0.08827453	     19.60349689	     -3.35045135	      7.72488108	     86.23760685	     79.35293479	     28.06525161	     -3.82956410	     26.04478996	     74.94615518	     83.61164525
      5.51666670	     -1.27034885	      1.87671765	      5.12291646	      2.46201461	      0.87151824	     -0.04117461	     18.36289324	     -6.13851828	     -2.77619446	     10.57745092	      5.58919138	      6.99440312	      0.00000000	      9.05800198	      1.18628940	      4.21907694	     18.02282696	      6.12437373	      2.90441617	      0.00000000	     -7.76509797	     -3.33379047	     -0.23346702	     19.18797691	     -3.61799351	      7.45130052	     87.12232747	     79.17709134	     26.96800646	     -4.05506422	     26.79564403	     76.97326616	     83.32503333
      5.53333330	     -0.85975166	      2.15806514	      6.16745694	      2.46909047	      0.86916092	     -0.03842293	     17.69692673	     -6.48332996	     -1.91367438	     10.95167799	      4.21734072	      7.26658987	      0.00000000	      8.94326035	      0.94341679	      4.18507699	     19.47418568	      7.18161776	      4.28868264	      0.00000000	     -7.57540350	     -3.53022526	     -0.22013135	     19.05944099	     -4.06812763	      7.21319914	     87.89879180	     79.00236618	     25.57774480	     -4.26269748	     27.78884578	     79.30767011	     83.03171555
